Coordinates
version=1
nRows=6
nColumns=107
inDegrees=yes

Units are S.I. units (second, meters, Newtons, ...)
If the header above contains a line with 'inDegrees', this indicates whether rotational values are in degrees (yes) or radians (no).

endheader
time	sternoclavicular_r2	sternoclavicular_r3	unrotscap_r3	unrotscap_r2	acromioclavicular_r2	acromioclavicular_r3	acromioclavicular_r1	unrothum_r1	unrothum_r3	unrothum_r2	elv_angle	shoulder_elv	shoulder1_r2	shoulder_rot	elbow_flexion	pro_sup	deviation	flexion	proximal_distal_r1	proximal_distal_r3	cmc_flexion	cmc_abduction	mp_flexion	ip_flexion	mcp2_flexion	mcp2_abduction	pm2_flexion	md2_flexion	mcp3_flexion	mcp3_abduction	pm3_flexion	md3_flexion	mcp4_flexion	mcp4_abduction	pm4_flexion	md4_flexion	mcp5_flexion	mcp5_abduction	pm5_flexion	md5_flexion	bicpt_tx	bicpt_ty	bicpt_tz	bicpt2_tx	bicpt2_ty	bicpt2_tz	ptpt_tx	ptpt_ty	ptpt_tz	FCUpt_tx	FCUpt_ty	FCUpt_tz	EDCpt_tx	EDCpt_ty	EDCpt_tz	APLpt_tx	APLpt_ty	APLpt_tz	FPLpt_tx	FPLpt_ty	FPLpt_tz	FPLpt2_tx	FPLpt2_ty	FPLpt2_tz	PEC1pt2_tx	PEC1pt2_ty	PEC1pt2_tz	PEC1pt3_tx	PEC1pt3_ty	PEC1pt3_tz	PEC2pt2_tx	PEC2pt2_ty	PEC2pt2_tz	PEC2pt3_tx	PEC2pt3_ty	PEC2pt3_tz	PEC3pt2_tx	PEC3pt2_ty	PEC3pt2_tz	PEC3pt3_tx	PEC3pt3_ty	PEC3pt3_tz	DELT2pt2a_tx	DELT2pt2a_ty	DELT2pt2a_tz	DELT2pt2_tx	DELT2pt2_ty	DELT2pt2_tz	LAT1pt2_tx	LAT1pt2_ty	LAT1pt2_tz	LAT1pt3_tx	LAT1pt3_ty	LAT1pt3_tz	LAT2pt2_tx	LAT2pt2_ty	LAT2pt2_tz	LAT2pt3_tx	LAT2pt3_ty	LAT2pt3_tz	LAT3pt2_tx	LAT3pt2_ty	LAT3pt2_tz	LAT3pt3_tx	LAT3pt3_ty	LAT3pt3_tz
     -0.00000000	     -0.31895975	      0.13509630	     -0.13509630	      0.31895975	     -0.06458286	      0.52193597	      0.23460663	     -0.23460663	     -0.52193597	      0.06458286	    100.45039603	     75.51655696	     -1.75319015	    -31.31950078	     29.40690301	     73.58270948	      0.30580384	     -0.74168680	      0.33847625	     -0.37084340	     33.75702006	    -18.79571370	     -9.01957712	      8.54310512	     93.78803778	     12.79821896	     80.73326918	     62.76744371	     93.93176051	      1.52060387	     83.01655450	     49.77799912	     94.87313778	    -13.33273683	     90.80677846	     41.69605371	    101.18348919	    -14.09687216	     89.93694006	      5.46298312	      0.00087269	     -0.03097048	     -0.00484290	      0.01534710	     -0.01818853	     -0.00309439	      0.00211307	     -0.06841561	     -0.00597748	      0.01133534	     -0.18263635	     -0.00020016	     -0.00882990	      0.00292039	     -0.00040028	      0.00029817	      0.00011927	      0.00059634	      0.00038165	      0.00114496	      0.00064404	     -0.00001221	     -0.00021085	     -0.00025302	      0.00247527	      0.00868441	      0.00604133	     -0.00809706	      0.01955041	     -0.01854353	      0.00247527	      0.00868441	      0.00604133	      0.00054540	      0.01812399	     -0.00952348	      0.00392324	      0.00482929	      0.01590694	      0.00000000	      0.00762574	      0.00000000	     -0.00709017	     -0.03276582	     -0.00628690	      0.01945130	     -0.00080238	     -0.00815176	     -0.00088103	      0.01476769	     -0.00604133	      0.00243331	      0.02131247	     -0.01762054	     -0.00591547	      0.01279587	     -0.00541202	     -0.01233438	      0.02701817	     -0.03024860	     -0.02315843	      0.01430620	     -0.00725799	     -0.01535505	      0.03121354	     -0.03780026
      0.03333333	     -0.31939424	      0.13528033	     -0.13528033	      0.31939424	     -0.06467084	      0.52264696	      0.23492621	     -0.23492621	     -0.52264696	      0.06467084	    100.35832143	     75.61942652	     -1.75158314	    -30.79089951	     29.28526350	     72.99523981	      0.30649656	     -0.75019386	      0.33906871	     -0.37509693	     33.39476767	    -18.76224912	     -7.81404841	      6.58838629	     93.84836500	     12.76462497	     80.51082662	     64.91322296	     93.83786780	      1.47546290	     82.92748477	     50.98449889	     95.02400644	    -13.33308942	     90.67975803	     41.66906287	    101.30954577	    -14.09367975	     90.39316705	      5.41790475	      0.00086867	     -0.03095654	     -0.00484065	      0.01539073	     -0.01815549	     -0.00318452	      0.00215648	     -0.06838754	     -0.00593016	      0.01127016	     -0.18265412	     -0.00021071	     -0.00875941	      0.00289046	     -0.00038547	      0.00029625	      0.00011850	      0.00059249	      0.00037919	      0.00113758	      0.00063989	     -0.00001200	     -0.00021531	     -0.00025837	      0.00247864	      0.00869624	      0.00604956	     -0.00810809	      0.01957705	     -0.01856879	      0.00247864	      0.00869624	      0.00604956	      0.00054614	      0.01814868	     -0.00953646	      0.00392716	      0.00483587	      0.01591661	      0.00000000	      0.00764668	      0.00000000	     -0.00709983	     -0.03281046	     -0.00630428	      0.01922444	     -0.00078418	     -0.00788769	     -0.00088223	      0.01478781	     -0.00604956	      0.00243663	      0.02134150	     -0.01764455	     -0.00592353	      0.01281330	     -0.00541940	     -0.01235118	      0.02705497	     -0.03028981	     -0.02318998	      0.01432569	     -0.00726787	     -0.01537596	      0.03125606	     -0.03785176
      0.06666667	     -0.32069333	      0.13583056	     -0.13583056	      0.32069333	     -0.06493388	      0.52477274	      0.23588174	     -0.23588174	     -0.52477274	      0.06493388	     99.98551150	     75.92699616	     -1.74507638	    -29.06752629	     29.28004649	     71.81884668	      0.32579697	     -0.71114871	      0.35527312	     -0.35557435	     33.61181847	    -18.60717661	     -8.97317308	      8.95755592	     93.76810195	     12.77165825	     80.63686858	     63.08973796	     93.74304775	      1.45388466	     83.08734778	     49.99240493	     94.84091257	    -13.34022012	     90.66905678	     41.51471231	    101.40985346	    -14.09471400	     90.22363481	      5.44538654	      0.00086849	     -0.03095594	     -0.00484055	      0.01547576	     -0.01815407	     -0.00336355	      0.00224340	     -0.06833134	     -0.00583539	      0.01113996	     -0.18268942	     -0.00023107	     -0.00861824	      0.00283084	     -0.00035636	      0.00030410	      0.00012164	      0.00060819	      0.00038924	      0.00116773	      0.00065685	     -0.00001213	     -0.00021265	     -0.00025519	      0.00248872	      0.00873161	      0.00607416	     -0.00814107	      0.01965667	     -0.01864431	      0.00248872	      0.00873161	      0.00607416	      0.00054836	      0.01822249	     -0.00957525	      0.00393885	      0.00485554	      0.01594537	      0.00000000	      0.00770944	      0.00000000	     -0.00712871	     -0.03294391	     -0.00635639	      0.01845884	     -0.00072539	     -0.00705011	     -0.00088582	      0.01484796	     -0.00607416	      0.00244654	      0.02142830	     -0.01771631	     -0.00594762	      0.01286542	     -0.00544144	     -0.01240142	      0.02716501	     -0.03041301	     -0.02328430	      0.01438396	     -0.00729743	     -0.01543850	      0.03138318	     -0.03800571
      0.10000000	     -0.32250825	      0.13659927	     -0.13659927	      0.32250825	     -0.06530136	      0.52774263	      0.23721668	     -0.23721668	     -0.52774263	      0.06530136	     99.61096109	     76.35669589	     -1.73853924	    -26.92801214	     28.87667753	     69.12650871	      0.32042248	     -0.75422680	      0.35082212	     -0.37711340	     32.16689364	    -18.45877417	     -5.67874004	      4.85138791	     93.96905283	     12.72247559	     79.24514792	     66.14992522	     93.85283353	      1.24295495	     82.72650384	     52.01747245	     95.01319702	    -13.38933449	     90.42732867	     41.80855209	    101.70111520	    -14.09881257	     90.61921134	      5.38953104	      0.00085515	     -0.03090971	     -0.00483311	      0.01565851	     -0.01804449	     -0.00376605	      0.00244233	     -0.06820270	     -0.00561851	      0.01084356	     -0.18276873	     -0.00027377	     -0.00829516	      0.00269598	     -0.00029255	      0.00029529	      0.00011812	      0.00059058	      0.00037797	      0.00113391	      0.00063782	     -0.00001103	     -0.00022933	     -0.00027520	      0.00250280	      0.00878103	      0.00610854	     -0.00818714	      0.01976792	     -0.01874983	      0.00250280	      0.00878103	      0.00610854	      0.00055147	      0.01832562	     -0.00962944	      0.00395512	      0.00488302	      0.01598516	      0.00000000	      0.00779756	      0.00000000	     -0.00716905	     -0.03313035	     -0.00642955	      0.01745320	     -0.00065364	     -0.00606203	     -0.00089083	      0.01493199	     -0.00610854	      0.00246038	      0.02154957	     -0.01781658	     -0.00598128	      0.01293823	     -0.00547223	     -0.01247160	      0.02731875	     -0.03058512	     -0.02341607	      0.01446536	     -0.00733873	     -0.01552587	      0.03156079	     -0.03822080
      0.13333333	     -0.32139048	      0.13612584	     -0.13612584	      0.32139048	     -0.06507504	      0.52591355	      0.23639452	     -0.23639452	     -0.52591355	      0.06507504	     99.86769900	     76.09205405	     -1.74302016	    -28.31147586	     28.94302044	     70.06350523	      0.30472816	     -0.78170373	      0.33755307	     -0.39085187	     31.76550270	    -18.35572287	     -4.64026622	      3.79033144	     93.79630552	     12.74568907	     79.20955903	     67.54037166	     93.40242193	      1.44096369	     82.88554705	     52.55764209	     94.89098193	    -13.40570297	     90.66324991	     41.82046783	    101.44296009	    -14.08019414	     90.96014077	      5.36951489	      0.00085735	     -0.03091731	     -0.00483433	      0.01559672	     -0.01806251	     -0.00362709	      0.00237310	     -0.06824747	     -0.00569399	      0.01094647	     -0.18274135	     -0.00025951	     -0.00840760	      0.00274267	     -0.00031433	      0.00028806	      0.00011522	      0.00057612	      0.00036871	      0.00110614	      0.00062221	     -0.00001065	     -0.00023358	     -0.00028030	      0.00249413	      0.00875059	      0.00608737	     -0.00815877	      0.01969940	     -0.01868484	      0.00249413	      0.00875059	      0.00608737	      0.00054955	      0.01826211	     -0.00959606	      0.00394510	      0.00486609	      0.01596070	      0.00000000	      0.00774323	      0.00000000	     -0.00714420	     -0.03301552	     -0.00638444	      0.01811045	     -0.00069988	     -0.00669424	     -0.00088774	      0.01488024	     -0.00608737	      0.00245186	      0.02147489	     -0.01775483	     -0.00596055	      0.01289339	     -0.00545327	     -0.01242838	      0.02722407	     -0.03047912	     -0.02333492	      0.01441523	     -0.00731330	     -0.01547206	      0.03145141	     -0.03808833
      0.16666667	     -0.31879408	      0.13502613	     -0.13502613	      0.31879408	     -0.06454932	      0.52166487	      0.23448477	     -0.23448477	     -0.52166487	      0.06454932	    100.47249349	     75.47733215	     -1.75357582	    -31.47516112	     29.47352910	     74.00650381	      0.31484492	     -0.72024650	      0.34615247	     -0.36012325	     33.63047665	    -18.49013279	     -8.36761849	      8.43685311	     93.74211677	     12.81506183	     80.62639633	     63.51675756	     93.56300033	      1.60257766	     83.11953667	     50.45873136	     94.73022365	    -13.31116145	     90.56575118	     41.84378091	    101.16552148	    -14.09150877	     90.68121795	      5.42115526	      0.00087489	     -0.03097812	     -0.00484413	      0.01531512	     -0.01820663	     -0.00302906	      0.00208175	     -0.06843586	     -0.00601162	      0.01138243	     -0.18262346	     -0.00019238	     -0.00888076	      0.00294205	     -0.00041109	      0.00030248	      0.00012099	      0.00060496	      0.00038718	      0.00116153	      0.00065336	     -0.00001214	     -0.00021242	     -0.00025491	      0.00247398	      0.00867990	      0.00603819	     -0.00809285	      0.01954026	     -0.01853389	      0.00247398	      0.00867990	      0.00603819	      0.00054511	      0.01811458	     -0.00951854	      0.00392175	      0.00482678	      0.01590325	      0.00000000	      0.00761777	      0.00000000	     -0.00708649	     -0.03274880	     -0.00628028	      0.01951743	     -0.00080775	     -0.00823012	     -0.00088057	      0.01476002	     -0.00603819	      0.00243205	      0.02130140	     -0.01761139	     -0.00591240	      0.01278923	     -0.00540921	     -0.01232797	      0.02700413	     -0.03023289	     -0.02314640	      0.01429877	     -0.00725422	     -0.01534707	      0.03119732	     -0.03778063
